<?xml version="1.0" encoding="UTF-8"?>
<!DOCTYPE svg PUBLIC "-//W3C//DTD SVG 1.1//EN" "http://www.w3.org/Graphics/SVG/1.1/DTD/svg11.dtd">
<svg version="1.1" xmlns="http://www.w3.org/2000/svg" xmlns:xlink="http://www.w3.org/1999/xlink" x="0" y="0" width="211.878" height="189.667" viewBox="0, 0, 211.878, 189.667">
  <g id="Layer_1" transform="translate(-200.061, -317.25)">
    <g>
      <path d="M232.75,347.083 L380.75,347.083 L380.75,473.417 L232.75,473.417 L232.75,347.083 z" fill="#FFFFFF"/>
      <path d="M232.75,347.083 L380.75,347.083 L380.75,473.417 L232.75,473.417 L232.75,347.083 z" fill-opacity="0" stroke="#685186" stroke-width="10"/>
    </g>
    <g>
      <path d="M247.375,473.417 L294.417,473.417 L294.417,494.417 L247.375,494.417 L247.375,473.417 z" fill="#685186"/>
      <path d="M247.375,473.417 L294.417,473.417 L294.417,494.417 L247.375,494.417 L247.375,473.417 z" fill-opacity="0" stroke="#685186" stroke-width="6"/>
    </g>
    <g>
      <path d="M321.417,473.417 L368.458,473.417 L368.458,494.417 L321.417,494.417 L321.417,473.417 z" fill="#685186"/>
      <path d="M321.417,473.417 L368.458,473.417 L368.458,494.417 L321.417,494.417 L321.417,473.417 z" fill-opacity="0" stroke="#685186" stroke-width="6"/>
    </g>
    <g>
      <path d="M380.75,374.083 L399.439,374.083 L399.439,411.417 L380.75,411.417 L380.75,374.083 z" fill="#685186"/>
      <path d="M380.75,374.083 L399.439,374.083 L399.439,411.417 L380.75,411.417 L380.75,374.083 z" fill-opacity="0" stroke="#685186" stroke-width="6"/>
    </g>
    <g>
      <path d="M213.561,374.083 L232.25,374.083 L232.25,411.417 L213.561,411.417 L213.561,374.083 z" fill="#685186"/>
      <path d="M213.561,374.083 L232.25,374.083 L232.25,411.417 L213.561,411.417 L213.561,374.083 z" fill-opacity="0" stroke="#685186" stroke-width="6"/>
    </g>
    <g>
      <path d="M318.333,348.417 L294.417,348.417 L294.417,330.75 L318.333,330.75 L318.333,348.417 z" fill="#685186"/>
      <path d="M318.333,348.417 L294.417,348.417 L294.417,330.75 L318.333,330.75 L318.333,348.417 z" fill-opacity="0" stroke="#685186" stroke-width="6"/>
    </g>
    <path d="M278.25,411.667 C269.598,411.667 262.583,404.652 262.583,396 C262.583,387.348 269.598,380.333 278.25,380.333 C286.902,380.333 293.917,387.348 293.917,396 C293.917,404.652 286.902,411.667 278.25,411.667 z" fill="#685186"/>
    <path d="M336.583,411.667 C327.931,411.667 320.917,404.652 320.917,396 C320.917,387.348 327.931,380.333 336.583,380.333 C345.236,380.333 352.25,387.348 352.25,396 C352.25,404.652 345.236,411.667 336.583,411.667 z" fill="#685186"/>
  </g>
</svg>
