<?xml version="1.0" encoding="UTF-8"?>
<!DOCTYPE svg PUBLIC "-//W3C//DTD SVG 1.1//EN" "http://www.w3.org/Graphics/SVG/1.1/DTD/svg11.dtd">
<svg version="1.1" xmlns="http://www.w3.org/2000/svg" xmlns:xlink="http://www.w3.org/1999/xlink" x="0" y="0" width="938.064" height="191" viewBox="0, 0, 938.064, 191">
  <g id="Layer_2" transform="translate(-74.789, -300.667)">
    <g>
      <path d="M335.199,355.385 L362.66,355.385 Q368.776,355.385 374.141,356.596 Q379.506,357.808 383.487,360.635 Q387.468,363.462 389.776,368.135 Q392.083,372.808 392.083,379.615 Q392.083,386.192 389.718,391.038 Q387.353,395.885 383.314,399 Q379.276,402.115 373.968,403.615 Q368.66,405.115 362.66,405.115 L352.16,405.115 L352.16,430.615 L335.199,430.615 z M361.622,391.615 Q375.468,391.615 375.468,379.615 Q375.468,373.731 371.949,371.308 Q368.429,368.885 361.622,368.885 L352.16,368.885 L352.16,391.615 z" fill="#FFFFFF"/>
      <path d="M431.199,399.462 L429.468,392.538 Q427.853,386.885 426.353,380.538 Q424.853,374.192 423.353,368.308 L422.891,368.308 Q421.506,374.308 420.064,380.596 Q418.622,386.885 417.006,392.538 L415.16,399.462 z M434.66,412.731 L411.699,412.731 L407.083,430.615 L389.776,430.615 L413.314,355.385 L433.737,355.385 L457.276,430.615 L439.276,430.615 z" fill="#FFFFFF"/>
      <path d="M460.737,393.462 Q460.737,384.115 463.679,376.788 Q466.622,369.462 471.641,364.385 Q476.66,359.308 483.41,356.654 Q490.16,354 497.776,354 Q505.737,354 511.564,357 Q517.391,360 521.083,363.808 L511.737,374.308 Q508.968,371.654 505.91,370.154 Q502.853,368.654 498.006,368.654 Q493.622,368.654 489.987,370.327 Q486.353,372 483.699,375.115 Q481.045,378.231 479.603,382.731 Q478.16,387.231 478.16,392.885 Q478.16,404.538 483.41,410.942 Q488.66,417.346 499.276,417.346 Q501.583,417.346 503.776,416.769 Q505.968,416.192 507.353,415.038 L507.353,402.115 L494.891,402.115 L494.891,388.269 L522.353,388.269 L522.353,422.885 Q518.314,426.692 511.737,429.346 Q505.16,432 497.199,432 Q489.583,432 482.949,429.519 Q476.314,427.038 471.353,422.192 Q466.391,417.346 463.564,410.135 Q460.737,402.923 460.737,393.462 z" fill="#FFFFFF"/>
      <path d="M537.93,355.385 L585.006,355.385 L585.006,369.692 L554.891,369.692 L554.891,384.808 L580.506,384.808 L580.506,399 L554.891,399 L554.891,416.308 L586.16,416.308 L586.16,430.615 L537.93,430.615 z" fill="#FFFFFF"/>
      <path d="M615.814,369.692 L595.16,369.692 L595.16,355.385 L653.545,355.385 L653.545,369.692 L632.891,369.692 L632.891,430.615 L615.814,430.615 z" fill="#FFFFFF"/>
      <path d="M664.853,354.692 L681.929,354.692 L681.929,396.808 Q681.929,407.885 685.276,412.269 Q688.622,416.654 694.968,416.654 Q701.314,416.654 704.776,412.269 Q708.237,407.885 708.237,396.808 L708.237,354.692 L724.622,354.692 L724.622,395.077 Q724.622,414 717.064,422.654 Q709.506,431.308 694.968,431.308 Q680.314,431.308 672.583,422.654 Q664.853,414 664.853,395.077 z" fill="#FFFFFF"/>
      <path d="M759.006,390 L767.776,390 Q774.468,390 777.987,387.173 Q781.506,384.346 781.506,378.808 Q781.506,373.269 777.987,371.077 Q774.468,368.885 767.776,368.885 L759.006,368.885 z M782.776,430.615 L768.353,403.5 L759.006,403.5 L759.006,430.615 L742.045,430.615 L742.045,355.385 L769.16,355.385 Q775.16,355.385 780.41,356.538 Q785.66,357.692 789.583,360.404 Q793.506,363.115 795.814,367.615 Q798.122,372.115 798.122,378.808 Q798.122,387.115 794.487,392.481 Q790.853,397.846 784.737,400.5 L801.814,430.615 z" fill="#FFFFFF"/>
      <path d="M813.122,355.385 L830.545,355.385 L850.16,392.769 L857.545,409.385 L858.006,409.385 Q857.43,403.385 856.68,396 Q855.93,388.615 855.93,381.923 L855.93,355.385 L872.083,355.385 L872.083,430.615 L854.66,430.615 L835.045,393.115 L827.66,376.731 L827.199,376.731 Q827.776,382.962 828.526,390.115 Q829.276,397.269 829.276,403.962 L829.276,430.615 L813.122,430.615 z" fill="#FFFFFF"/>
      <path d="M889.852,355.385 L936.929,355.385 L936.929,369.692 L906.814,369.692 L906.814,384.808 L932.429,384.808 L932.429,399 L906.814,399 L906.814,416.308 L938.083,416.308 L938.083,430.615 L889.852,430.615 z" fill="#FFFFFF"/>
      <path d="M970.045,390 L978.814,390 Q985.506,390 989.026,387.173 Q992.545,384.346 992.545,378.808 Q992.545,373.269 989.026,371.077 Q985.506,368.885 978.814,368.885 L970.045,368.885 z M993.814,430.615 L979.391,403.5 L970.045,403.5 L970.045,430.615 L953.083,430.615 L953.083,355.385 L980.199,355.385 Q986.199,355.385 991.449,356.538 Q996.699,357.692 1000.622,360.404 Q1004.545,363.115 1006.853,367.615 Q1009.16,372.115 1009.16,378.808 Q1009.16,387.115 1005.526,392.481 Q1001.891,397.846 995.776,400.5 L1012.853,430.615 z" fill="#FFFFFF"/>
    </g>
    <g>
      <path d="M107.478,331.833 L255.478,331.833 L255.478,458.167 L107.478,458.167 L107.478,331.833 z" fill-opacity="0" stroke="#FFFFFF" stroke-width="10"/>
      <g>
        <path d="M122.103,458.167 L169.144,458.167 L169.144,479.167 L122.103,479.167 L122.103,458.167 z" fill="#FFFFFF"/>
        <path d="M122.103,458.167 L169.144,458.167 L169.144,479.167 L122.103,479.167 L122.103,458.167 z" fill-opacity="0" stroke="#FFFFFF" stroke-width="6"/>
      </g>
      <g>
        <path d="M196.144,458.167 L243.186,458.167 L243.186,479.167 L196.144,479.167 L196.144,458.167 z" fill="#FFFFFF"/>
        <path d="M196.144,458.167 L243.186,458.167 L243.186,479.167 L196.144,479.167 L196.144,458.167 z" fill-opacity="0" stroke="#FFFFFF" stroke-width="6"/>
      </g>
      <g>
        <path d="M255.478,358.833 L274.167,358.833 L274.167,396.167 L255.478,396.167 L255.478,358.833 z" fill="#FFFFFF"/>
        <path d="M255.478,358.833 L274.167,358.833 L274.167,396.167 L255.478,396.167 L255.478,358.833 z" fill-opacity="0" stroke="#FFFFFF" stroke-width="6"/>
      </g>
      <g>
        <path d="M88.289,358.833 L106.978,358.833 L106.978,396.167 L88.289,396.167 L88.289,358.833 z" fill="#FFFFFF"/>
        <path d="M88.289,358.833 L106.978,358.833 L106.978,396.167 L88.289,396.167 L88.289,358.833 z" fill-opacity="0" stroke="#FFFFFF" stroke-width="6"/>
      </g>
      <g>
        <path d="M193.061,331.833 L169.144,331.833 L169.144,314.167 L193.061,314.167 L193.061,331.833 z" fill="#FFFFFF"/>
        <path d="M193.061,331.833 L169.144,331.833 L169.144,314.167 L193.061,314.167 L193.061,331.833 z" fill-opacity="0" stroke="#FFFFFF" stroke-width="6"/>
      </g>
      <path d="M151.811,392.667 C143.159,392.667 136.144,385.652 136.144,377 C136.144,368.348 143.159,361.333 151.811,361.333 C160.463,361.333 167.478,368.348 167.478,377 C167.478,385.652 160.463,392.667 151.811,392.667 z" fill="#FFFFFF"/>
      <path d="M210.144,392.667 C201.492,392.667 194.478,385.653 194.478,377 C194.478,368.348 201.492,361.333 210.144,361.333 C218.797,361.333 225.811,368.348 225.811,377 C225.811,385.653 218.797,392.667 210.144,392.667 z" fill="#FFFFFF"/>
    </g>
  </g>
</svg>
