<?xml version="1.0" encoding="UTF-8"?>
<!DOCTYPE svg PUBLIC "-//W3C//DTD SVG 1.1//EN" "http://www.w3.org/Graphics/SVG/1.1/DTD/svg11.dtd">
<svg version="1.1" xmlns="http://www.w3.org/2000/svg" xmlns:xlink="http://www.w3.org/1999/xlink" x="0" y="0" width="211.878" height="189.667" viewBox="0, 0, 211.878, 189.667">
  <g id="Layer_3" transform="translate(-254.122, -514.333)">
    <path d="M286.811,544.167 L434.811,544.167 L434.811,670.5 L286.811,670.5 L286.811,544.167 z" fill-opacity="0" stroke="#FFFFFF" stroke-width="10"/>
    <g>
      <path d="M301.436,670.5 L348.478,670.5 L348.478,691.5 L301.436,691.5 L301.436,670.5 z" fill="#FFFFFF"/>
      <path d="M301.436,670.5 L348.478,670.5 L348.478,691.5 L301.436,691.5 L301.436,670.5 z" fill-opacity="0" stroke="#FFFFFF" stroke-width="6"/>
    </g>
    <g>
      <path d="M375.478,670.5 L422.519,670.5 L422.519,691.5 L375.478,691.5 L375.478,670.5 z" fill="#FFFFFF"/>
      <path d="M375.478,670.5 L422.519,670.5 L422.519,691.5 L375.478,691.5 L375.478,670.5 z" fill-opacity="0" stroke="#FFFFFF" stroke-width="6"/>
    </g>
    <g>
      <path d="M434.811,571.167 L453.5,571.167 L453.5,608.5 L434.811,608.5 L434.811,571.167 z" fill="#FFFFFF"/>
      <path d="M434.811,571.167 L453.5,571.167 L453.5,608.5 L434.811,608.5 L434.811,571.167 z" fill-opacity="0" stroke="#FFFFFF" stroke-width="6"/>
    </g>
    <g>
      <path d="M267.622,571.167 L286.311,571.167 L286.311,608.5 L267.622,608.5 L267.622,571.167 z" fill="#FFFFFF"/>
      <path d="M267.622,571.167 L286.311,571.167 L286.311,608.5 L267.622,608.5 L267.622,571.167 z" fill-opacity="0" stroke="#FFFFFF" stroke-width="6"/>
    </g>
    <g>
      <path d="M372.394,545.5 L348.478,545.5 L348.478,527.833 L372.394,527.833 L372.394,545.5 z" fill="#FFFFFF"/>
      <path d="M372.394,545.5 L348.478,545.5 L348.478,527.833 L372.394,527.833 L372.394,545.5 z" fill-opacity="0" stroke="#FFFFFF" stroke-width="6"/>
    </g>
    <path d="M331.144,605 C322.492,605 315.478,597.986 315.478,589.333 C315.478,580.681 322.492,573.667 331.144,573.667 C339.797,573.667 346.811,580.681 346.811,589.333 C346.811,597.986 339.797,605 331.144,605 z" fill="#FFFFFF"/>
    <path d="M389.478,605 C380.825,605 373.811,597.986 373.811,589.333 C373.811,580.681 380.825,573.667 389.478,573.667 C398.13,573.667 405.144,580.681 405.144,589.333 C405.144,597.986 398.13,605 389.478,605 z" fill="#FFFFFF"/>
  </g>
</svg>
